<mxfile host="app.diagrams.net" modified="2024-04-30T20:57:55.833Z" agent="Mozilla/5.0 (Windows NT 10.0; Win64; x64; rv:125.0) Gecko/20100101 Firefox/125.0" etag="SXUa-nL8qfUUDwkcS0fN" version="24.2.1" type="device">
  <diagram name="Page-1" id="zeUAoeYTYEMwCBAbQ9nX">
    <mxGraphModel dx="2284" dy="774" grid="1" gridSize="10" guides="1" tooltips="1" connect="1" arrows="1" fold="1" page="1" pageScale="1" pageWidth="850" pageHeight="1100" math="0" shadow="0">
      <root>
        <mxCell id="0" />
        <mxCell id="1" parent="0" />
        <mxCell id="qCNQR4URj5oET9t-w2uO-11" value="" style="strokeWidth=1;shadow=0;dashed=0;align=center;html=1;shape=mxgraph.mockup.containers.browserWindow;rSize=0;strokeColor2=#008cff;strokeColor3=#c4c4c4;mainText=,;recursiveResize=0;fillColor=#665F96;strokeColor=#6c8ebf;" parent="1" vertex="1">
          <mxGeometry x="-680" y="20" width="800" height="870" as="geometry" />
        </mxCell>
        <mxCell id="qCNQR4URj5oET9t-w2uO-12" value="&lt;font color=&quot;#fcfcfc&quot;&gt;Page 1&lt;/font&gt;" style="strokeWidth=1;shadow=0;dashed=0;align=center;html=1;shape=mxgraph.mockup.containers.anchor;fontSize=17;fontColor=#666666;align=left;whiteSpace=wrap;" parent="qCNQR4URj5oET9t-w2uO-11" vertex="1">
          <mxGeometry x="60" y="12" width="110" height="26" as="geometry" />
        </mxCell>
        <mxCell id="qCNQR4URj5oET9t-w2uO-13" value="&lt;font color=&quot;#fcfcfc&quot;&gt;https://www.meme-gen.example&lt;/font&gt;" style="strokeWidth=1;shadow=0;dashed=0;align=center;html=1;shape=mxgraph.mockup.containers.anchor;rSize=0;fontSize=17;fontColor=#666666;align=left;" parent="qCNQR4URj5oET9t-w2uO-11" vertex="1">
          <mxGeometry x="130" y="60" width="250" height="26" as="geometry" />
        </mxCell>
        <mxCell id="qCNQR4URj5oET9t-w2uO-26" value="Meme Generator" style="html=1;shadow=0;dashed=0;fillColor=#A227B0;strokeColor=#9673a6;fontSize=16;align=left;spacing=15;" parent="qCNQR4URj5oET9t-w2uO-11" vertex="1">
          <mxGeometry y="110" width="800" height="60" as="geometry" />
        </mxCell>
        <mxCell id="qCNQR4URj5oET9t-w2uO-27" value="Home" style="fillColor=none;strokeColor=none;fontSize=14;fontColor=#ffffff;align=center;" parent="qCNQR4URj5oET9t-w2uO-26" vertex="1">
          <mxGeometry width="70" height="40" relative="1" as="geometry">
            <mxPoint x="150" y="10" as="offset" />
          </mxGeometry>
        </mxCell>
        <mxCell id="qCNQR4URj5oET9t-w2uO-30" value="Contact" style="fillColor=none;strokeColor=none;fontSize=14;fontColor=#9A9DA0;align=center;" parent="qCNQR4URj5oET9t-w2uO-26" vertex="1">
          <mxGeometry width="80" height="40" relative="1" as="geometry">
            <mxPoint x="220" y="10" as="offset" />
          </mxGeometry>
        </mxCell>
        <mxCell id="qCNQR4URj5oET9t-w2uO-33" value="" style="rounded=0;whiteSpace=wrap;html=1;fillColor=#9838AB;strokeColor=#9673a6;" parent="qCNQR4URj5oET9t-w2uO-11" vertex="1">
          <mxGeometry x="200" y="270" width="400" height="240" as="geometry" />
        </mxCell>
        <mxCell id="qCNQR4URj5oET9t-w2uO-71" value="" style="rounded=0;whiteSpace=wrap;html=1;fillColor=#8980C9;" parent="qCNQR4URj5oET9t-w2uO-11" vertex="1">
          <mxGeometry x="30" y="820" width="740" height="50" as="geometry" />
        </mxCell>
        <mxCell id="qCNQR4URj5oET9t-w2uO-72" value="&lt;font style=&quot;font-size: 14px;&quot; color=&quot;#ffffff&quot;&gt;Meme Generator 2024 &amp;nbsp;&amp;nbsp; - Home &amp;nbsp; - Contact&lt;/font&gt;" style="text;html=1;align=center;verticalAlign=middle;whiteSpace=wrap;rounded=0;" parent="qCNQR4URj5oET9t-w2uO-11" vertex="1">
          <mxGeometry x="245" y="830" width="310" height="30" as="geometry" />
        </mxCell>
        <mxCell id="6VpeM_rR_zzPdDcRQ0ub-2" value="&lt;font color=&quot;#ffffff&quot; style=&quot;font-size: 24px;&quot;&gt;&lt;b&gt;Meme Generator&lt;br&gt;&lt;/b&gt;&lt;/font&gt;" style="text;html=1;align=center;verticalAlign=middle;whiteSpace=wrap;rounded=0;" parent="qCNQR4URj5oET9t-w2uO-11" vertex="1">
          <mxGeometry x="300" y="290" width="200" height="30" as="geometry" />
        </mxCell>
        <mxCell id="6VpeM_rR_zzPdDcRQ0ub-19" value="" style="rounded=0;whiteSpace=wrap;html=1;" parent="qCNQR4URj5oET9t-w2uO-11" vertex="1">
          <mxGeometry x="260" y="335" width="280" height="40" as="geometry" />
        </mxCell>
        <mxCell id="6VpeM_rR_zzPdDcRQ0ub-20" value="Number of memes entry field" style="rounded=0;whiteSpace=wrap;html=1;" parent="qCNQR4URj5oET9t-w2uO-11" vertex="1">
          <mxGeometry x="260" y="400" width="280" height="40" as="geometry" />
        </mxCell>
        <mxCell id="6VpeM_rR_zzPdDcRQ0ub-22" value="Meme subject entry field" style="text;html=1;align=center;verticalAlign=middle;whiteSpace=wrap;rounded=0;" parent="qCNQR4URj5oET9t-w2uO-11" vertex="1">
          <mxGeometry x="280" y="340" width="240" height="30" as="geometry" />
        </mxCell>
        <mxCell id="qCNQR4URj5oET9t-w2uO-32" value="&lt;div style=&quot;font-size: 19px;&quot;&gt;&lt;font style=&quot;font-size: 19px;&quot; color=&quot;#ffffff&quot;&gt;Meme Container&amp;nbsp;&lt;/font&gt;&lt;/div&gt;&lt;div style=&quot;font-size: 19px;&quot;&gt;&lt;font style=&quot;font-size: 19px;&quot; color=&quot;#ffffff&quot;&gt;(size depends on number submitted / number of results)&lt;/font&gt;&lt;/div&gt;" style="html=1;shadow=0;dashed=0;shape=mxgraph.bootstrap.rrect;rSize=5;fontSize=14;fontColor=#6C767D;strokeColor=#4CB4DA;fillColor=#4B3DCC;align=center;spacing=10;" parent="qCNQR4URj5oET9t-w2uO-11" vertex="1">
          <mxGeometry x="1" width="559" height="250" relative="1" as="geometry">
            <mxPoint x="-680" y="540" as="offset" />
          </mxGeometry>
        </mxCell>
        <mxCell id="qCNQR4URj5oET9t-w2uO-31" value="&lt;font color=&quot;#eb992f&quot;&gt;Search&lt;/font&gt;" style="html=1;shadow=0;dashed=0;shape=mxgraph.bootstrap.rrect;rSize=5;fontSize=14;fontColor=#1CA5B8;strokeColor=#EB992F;fillColor=none;" parent="qCNQR4URj5oET9t-w2uO-11" vertex="1">
          <mxGeometry x="1" width="70" height="40" relative="1" as="geometry">
            <mxPoint x="-435" y="460" as="offset" />
          </mxGeometry>
        </mxCell>
        <mxCell id="qCNQR4URj5oET9t-w2uO-25" value="Untitled Layer" parent="0" />
      </root>
    </mxGraphModel>
  </diagram>
</mxfile>
